<svg width="69" height="79" viewBox="0 0 69 79" fill="none" xmlns="http://www.w3.org/2000/svg">
<path d="M55.5089 16.5812L51.7373 21.4252C57.0833 25.5691 60.7676 31.4915 62.1219 38.1185C63.4763 44.7456 62.4111 51.6386 59.1195 57.5477C55.8279 63.4568 50.5279 67.9908 44.1804 70.3277C37.8328 72.6645 30.858 72.6495 24.5206 70.2852C18.1832 67.921 12.9028 63.3642 9.63674 57.4409C6.3707 51.5176 5.33529 44.6201 6.71824 37.999C8.10118 31.3778 11.8109 25.4714 17.1748 21.3506C22.5388 17.2299 29.2017 15.1676 35.9556 15.5378L30.649 21.1046L34.5853 24.8612L42.962 16.0607L46.7147 12.1194L42.7847 8.37799L33.9906 0L30.2353 3.94133L35.9632 9.39758C27.1777 8.99751 18.5727 11.9777 11.9164 17.7256C5.26015 23.4736 1.05828 31.5527 0.174298 40.3027C-0.709687 49.0528 1.79135 57.8091 7.16345 64.7722C12.5355 71.7353 20.3706 76.3763 29.0586 77.7416C30.8513 78.0249 32.6634 78.1674 34.4784 78.1677C41.6435 78.1499 48.6244 75.896 54.4472 71.7205C60.2699 67.545 64.6441 61.6561 66.9596 54.8754C69.2751 48.0947 69.4163 40.7603 67.3636 33.8955C65.3109 27.0307 61.1666 20.9778 55.5089 16.5812Z" fill="#FF6875"/>
<path d="M37.7753 61.3047V57.772C41.9643 57.3043 46.0389 54.6592 46.0389 49.6354C46.0389 42.8101 39.6925 42.0281 35.0572 41.4573C32.094 41.1028 29.8247 40.6917 29.8247 38.8964C29.8247 36.3996 33.3449 36.1305 34.8535 36.1305C37.0989 36.1305 39.4951 37.1866 40.3098 38.5331L40.5462 38.9253L45.1978 36.7705L44.9677 36.3015C44.2774 34.9365 43.2572 33.7655 41.9996 32.8945C40.7421 32.0236 39.2871 31.4804 37.7665 31.3142V28.2026H32.3228V31.2991C27.2475 32.0534 24.2327 34.8645 24.2327 38.8951C24.2327 45.4665 30.1994 46.1328 34.5531 46.6219C38.4328 47.0795 40.2381 48.0375 40.2381 49.6392C40.2381 52.6904 36.0127 52.928 34.7178 52.928C31.835 52.928 29.0604 51.4898 28.2507 49.5788L28.0508 49.1074L22.9994 51.2484L23.2005 51.7198C24.6979 55.2262 27.9301 57.4225 32.3291 57.9417V61.3047H37.7753Z" fill="#FF6875"/>
</svg>
